<svg id="Layer_1" data-name="Layer 1" xmlns="http://www.w3.org/2000/svg" viewBox="0 0 20 20"><defs><style>.cls-1{fill:none;stroke:#89c540;stroke-miterlimit:10;stroke-width:0.87px;}.cls-2{fill:#8bcf57;}</style></defs><rect class="cls-1" x="1.16" y="1.46" width="17.67" height="17.07" rx="1.12"/><path class="cls-2" d="M17.49,4.47A28.19,28.19,0,0,0,14.8,6.41a31.38,31.38,0,0,0-7.57,9.08,3.3,3.3,0,0,1-1,.11,4.07,4.07,0,0,1-1.05-.06l-2.7-4.66s.27-.09.3-.1a6.09,6.09,0,0,1,.73-.1,4,4,0,0,1,1,0l1.74,3c.22-.33.44-.65.67-1a31,31,0,0,1,8.51-8.11A1.43,1.43,0,0,1,16,4.49a10.23,10.23,0,0,1,1.35-.09S17.59,4.41,17.49,4.47Z"/></svg>