<svg id="Layer_1" data-name="Layer 1" xmlns="http://www.w3.org/2000/svg" viewBox="0 0 70 56"><defs><style>.cls-1{fill:#fff;}.cls-2{fill:#79c11d;}</style></defs><rect class="cls-1" width="70" height="56"/><path class="cls-2" d="M8.11,1.77H64.39a2.31,2.31,0,0,1,2.47,2.11V52.12a2.31,2.31,0,0,1-2.47,2.11,2.73,2.73,0,0,1-1.76-.62L36.18,34.13,9.73,53.72a2.79,2.79,0,0,1-3.49-.22,1.92,1.92,0,0,1-.59-1.38h0V3.88A2.31,2.31,0,0,1,8.11,1.77ZM61.91,6H10.59V47.5l24-17.73a2.78,2.78,0,0,1,3.25,0L61.92,47.52V6Z"/></svg>